<svg width="43" height="43" viewBox="0 0 43 43" fill="none" xmlns="http://www.w3.org/2000/svg">
<path fill-rule="evenodd" clip-rule="evenodd" d="M9.6792 5.67926C7.47006 5.67926 5.6792 7.47012 5.6792 9.67926V33.3208C5.6792 35.5299 7.47006 37.3208 9.6792 37.3208H33.3207C35.5298 37.3208 37.3207 35.5299 37.3207 33.3208V9.67926C37.3207 7.47012 35.5298 5.67926 33.3207 5.67926H9.6792ZM10.4368 21.8878C10.4391 15.5594 15.5909 10.412 21.9193 10.412C24.9904 10.4132 27.8713 11.6082 30.039 13.7771C32.2067 15.9471 33.3996 18.8314 33.3973 21.899C33.3938 28.2263 28.2443 33.3748 21.917 33.3748H21.9126C19.9908 33.3736 18.103 32.8934 16.4261 31.9785L10.4121 33.3995L11.97 27.6257C10.9655 25.8855 10.4357 23.9107 10.4368 21.8878ZM28.4137 15.4024C26.6793 13.6691 24.3721 12.7119 21.917 12.7108C16.8564 12.7108 12.7378 16.8283 12.7355 21.8878C12.7344 23.5004 13.159 25.0879 13.9612 26.4763L14.4372 27.3024L14.188 28.2228L13.6357 30.2746L15.8986 29.7403L16.7539 29.5383L17.5283 29.9603C18.8651 30.6902 20.3827 31.0749 21.9148 31.076C26.9789 31.076 31.0962 26.9586 31.0985 21.8968C31.1008 19.444 30.1481 17.1379 28.4137 15.4024ZM17.0906 16.9491C17.3538 16.6618 17.6641 16.5899 17.8561 16.5899H17.8689C18.0554 16.5899 18.2409 16.5899 18.4038 16.5967C18.6084 16.6047 18.8354 16.6158 19.0504 17.0928C19.1982 17.4217 19.4476 18.0354 19.6452 18.5216C19.7887 18.8747 19.9048 19.1605 19.9348 19.2209C20.0061 19.3646 20.0549 19.533 19.9595 19.7237C19.9466 19.7497 19.9344 19.7743 19.9228 19.7979C19.849 19.9479 19.7953 20.0569 19.6722 20.2019C19.6227 20.2597 19.5718 20.322 19.521 20.3841C19.4241 20.5025 19.3278 20.6203 19.2434 20.7048C19.0997 20.8473 18.9488 21.0045 19.1155 21.2907C19.2833 21.578 19.8587 22.5154 20.7116 23.2751C21.6267 24.0905 22.4216 24.4369 22.8266 24.6134C22.9068 24.6484 22.9718 24.6767 23.0193 24.7006C23.3066 24.8443 23.4733 24.8185 23.6411 24.6265C23.8089 24.4357 24.3572 23.7914 24.548 23.5041C24.7388 23.2168 24.9313 23.265 25.1945 23.3604C25.4578 23.4558 26.8681 24.1484 27.1543 24.2921C27.2111 24.3204 27.2641 24.346 27.3132 24.3697C27.5126 24.4658 27.6471 24.5306 27.7043 24.6265C27.7756 24.7449 27.775 25.3213 27.5359 25.9914C27.2969 26.6615 26.125 27.3069 25.5986 27.354C25.5485 27.3586 25.4987 27.3645 25.4475 27.3705C24.961 27.4278 24.3495 27.4999 22.1572 26.6357C19.4586 25.572 17.6798 22.9335 17.3166 22.3949C17.2874 22.3516 17.2673 22.3218 17.2567 22.3076L17.2539 22.3039C17.1003 22.0986 16.0849 20.7425 16.0849 19.3399C16.0849 18.0182 16.736 17.3263 17.0349 17.0087C17.0552 16.9871 17.0739 16.9673 17.0906 16.9491Z" fill="white"/>
</svg>
