<svg width="43" height="43" viewBox="0 0 43 43" fill="none" xmlns="http://www.w3.org/2000/svg">
<path fill-rule="evenodd" clip-rule="evenodd" d="M9.6792 5.67926C7.47006 5.67926 5.6792 7.47012 5.6792 9.67926V33.3208C5.6792 35.5299 7.47006 37.3208 9.6792 37.3208H33.3207C35.5298 37.3208 37.3207 35.5299 37.3207 33.3208V9.67926C37.3207 7.47012 35.5298 5.67926 33.3207 5.67926H9.6792ZM8.84331 16.2284C8.84331 12.1572 12.1541 8.84333 16.2243 8.84333H26.7714C30.8426 8.84333 34.1565 12.1541 34.1565 16.2243V26.7715C34.1565 30.8427 30.8457 34.1565 26.7756 34.1565H16.2284C12.1572 34.1565 8.84331 30.8457 8.84331 26.7756V16.2284ZM29.9376 14.1169C29.9376 13.5347 29.4651 13.0622 28.8829 13.0622C28.3007 13.0622 27.8282 13.5347 27.8282 14.1169C27.8282 14.6991 28.3007 15.1716 28.8829 15.1716C29.4651 15.1716 29.9376 14.6991 29.9376 14.1169ZM27.8282 21.4999C27.8282 18.0099 24.99 15.1716 21.4999 15.1716C18.0099 15.1716 15.1716 18.0099 15.1716 21.4999C15.1716 24.99 18.0099 27.8282 21.4999 27.8282C24.99 27.8282 27.8282 24.99 27.8282 21.4999ZM18.5167 18.5167C19.3079 17.7256 20.381 17.2811 21.4999 17.2811C22.6188 17.2811 23.6919 17.7256 24.4831 18.5167C25.2743 19.3079 25.7188 20.381 25.7188 21.4999C25.7188 22.6188 25.2743 23.6919 24.4831 24.4831C23.6919 25.2743 22.6188 25.7188 21.4999 25.7188C20.381 25.7188 19.3079 25.2743 18.5167 24.4831C17.7255 23.6919 17.281 22.6188 17.281 21.4999C17.281 20.381 17.7255 19.3079 18.5167 18.5167Z" fill="white"/>
</svg>
