<svg width="43" height="43" viewBox="0 0 43 43" fill="none" xmlns="http://www.w3.org/2000/svg">
<path d="M30.2893 5.67926H12.7106C8.82753 5.67926 5.6792 8.82759 5.6792 12.7107V30.2893C5.6792 34.1724 8.82753 37.3208 12.7106 37.3208H30.2893C34.1724 37.3208 37.3207 34.1724 37.3207 30.2893V12.7107C37.3207 8.82759 34.1724 5.67926 30.2893 5.67926ZM30.3772 17.13C30.3772 17.2811 30.3772 17.4306 30.3772 17.7329C30.3772 23.4583 26.0071 30.0889 18.0211 30.0889C15.6111 30.0889 13.3505 29.3348 11.3922 28.1307C11.6928 28.1307 12.1464 28.1307 12.447 28.1307C14.4052 28.1307 16.3652 27.3765 17.8717 26.3218C15.9135 26.3218 14.407 24.9665 13.804 23.3089C14.1046 23.3089 14.407 23.46 14.5582 23.46C15.0099 23.46 15.3123 23.46 15.7641 23.3089C13.8058 22.8571 12.2993 21.1994 12.2993 19.09C12.9023 19.3906 13.5052 19.5418 14.2576 19.6929C13.0517 18.6382 12.2993 17.4323 12.2993 15.9258C12.2993 15.1717 12.4505 14.4193 12.9023 13.8164C15.0117 16.3776 18.1758 18.1864 21.7918 18.3359C21.7918 18.0353 21.6406 17.7329 21.6406 17.2811C21.6406 14.8711 23.5988 12.9111 26.0106 12.9111C27.2165 12.9111 28.4207 13.3629 29.1748 14.2664C30.2295 14.1152 31.133 13.6635 31.8872 13.2117C31.5866 14.2664 30.8324 15.0205 29.9289 15.6217C30.8324 15.4705 31.5866 15.3211 32.4901 14.8676C31.8836 15.7747 31.1313 16.527 30.3772 17.13Z" fill="white"/>
<path d="M5.6792 11.6793C5.6792 8.36555 8.36549 5.67926 11.6792 5.67926H31.3207C34.6344 5.67926 37.3207 8.36555 37.3207 11.6793V12.7107H5.6792V11.6793Z" fill="white"/>
<path d="M5.6792 30.2891H37.3207V31.3205C37.3207 34.6342 34.6344 37.3205 31.3207 37.3205H11.6792C8.36548 37.3205 5.6792 34.6342 5.6792 31.3205V30.2891Z" fill="white"/>
<rect x="5.6792" y="10.6011" width="2.10943" height="23.2038" fill="white"/>
<rect x="35.2114" y="10.6011" width="2.10943" height="23.2038" fill="white"/>
</svg>
