<svg width="43" height="43" viewBox="0 0 43 43" fill="none" xmlns="http://www.w3.org/2000/svg">
<path d="M34.4001 5.7334H8.60006C7.01623 5.7334 5.7334 7.01623 5.7334 8.60007V34.4001C5.7334 35.9839 7.01623 37.2667 8.60006 37.2667H22.9334V24.3667H18.6334V20.0667H22.9334V17.7576C22.9334 13.386 25.0633 11.4667 28.6968 11.4667C30.4369 11.4667 31.3571 11.5957 31.7928 11.6545V15.7667H29.3146C27.7723 15.7667 27.2334 16.5809 27.2334 18.2292V20.0667H31.7541L31.1407 24.3667H27.2334V37.2667H34.4001C35.9839 37.2667 37.2667 35.9839 37.2667 34.4001V8.60007C37.2667 7.01623 35.9825 5.7334 34.4001 5.7334Z" fill="white"/>
</svg>
