<svg width="20" height="19" viewBox="0 0 20 19" fill="currentColor" xmlns="http://www.w3.org/2000/svg">
<path fill-rule="evenodd" clip-rule="evenodd" d="M19.1029 1.73045H6.78741C6.44559 0.724103 5.4928 0 4.37089 0C3.24897 0 2.29618 0.724103 1.95437 1.73045H0.820916C0.367537 1.73045 0 2.09799 0 2.55137C0 3.00475 0.367537 3.37229 0.820917 3.37229H1.95428C2.29602 4.37877 3.24888 5.10299 4.37089 5.10299C5.4929 5.10299 6.44575 4.37877 6.78749 3.37229H19.1029C19.5563 3.37229 19.9239 3.00475 19.9239 2.55137C19.9239 2.09799 19.5563 1.73045 19.1029 1.73045ZM0 9.11884C0 9.57222 0.367537 9.93976 0.820917 9.93976H13.137C13.4788 10.9461 14.4316 11.6703 15.5535 11.6703C16.6754 11.6703 17.6282 10.9461 17.97 9.93976H19.1029C19.5563 9.93976 19.9239 9.57222 19.9239 9.11884C19.9239 8.66546 19.5563 8.29793 19.1029 8.29793H17.9701C17.6283 7.29147 16.6755 6.56726 15.5535 6.56726C14.4315 6.56726 13.4787 7.29147 13.1369 8.29793H0.820916C0.367537 8.29793 0 8.66546 0 9.11884ZM0.820917 16.507C0.367537 16.507 0 16.1395 0 15.6861C0 15.2327 0.367537 14.8652 0.820916 14.8652H4.5276C4.86941 13.8588 5.8222 13.1347 6.94411 13.1347C8.06603 13.1347 9.01882 13.8588 9.36063 14.8652H19.1029C19.5563 14.8652 19.9239 15.2327 19.9239 15.6861C19.9239 16.1395 19.5563 16.507 19.1029 16.507H9.36072C9.01898 17.5135 8.06612 18.2377 6.94411 18.2377C5.8221 18.2377 4.86925 17.5135 4.52751 16.507H0.820917ZM6.94445 17.1726C7.76543 17.1726 8.43097 16.5071 8.43097 15.6861C8.43097 14.8651 7.76543 14.1996 6.94445 14.1996C6.12346 14.1996 5.45792 14.8651 5.45792 15.6861C5.45792 16.5071 6.12346 17.1726 6.94445 17.1726ZM17.0395 9.11886C17.0395 9.93985 16.374 10.6054 15.553 10.6054C14.732 10.6054 14.0665 9.93985 14.0665 9.11886C14.0665 8.29788 14.732 7.63234 15.553 7.63234C16.374 7.63234 17.0395 8.29788 17.0395 9.11886ZM4.37129 4.03797C5.19228 4.03797 5.85781 3.37243 5.85781 2.55144C5.85781 1.73046 5.19228 1.06492 4.37129 1.06492C3.55031 1.06492 2.88477 1.73046 2.88477 2.55144C2.88477 3.37243 3.55031 4.03797 4.37129 4.03797Z" fill="currentColor"/>
</svg>
