<svg width="88" height="88" viewBox="0 0 88 88" fill="none" xmlns="http://www.w3.org/2000/svg">
<path d="M70.4001 11.7335H17.6001C14.3587 11.7335 11.7334 14.3589 11.7334 17.6002V70.4002C11.7334 73.6415 14.3587 76.2669 17.6001 76.2669H46.9334V49.8669H38.1334V41.0669H46.9334V36.3413C46.9334 27.3946 51.2923 23.4669 58.7283 23.4669C62.2894 23.4669 64.1726 23.7309 65.0643 23.8511V32.2669H59.9926C56.8363 32.2669 55.7334 33.933 55.7334 37.3063V41.0669H64.9851L63.7297 49.8669H55.7334V76.2669H70.4001C73.6414 76.2669 76.2667 73.6415 76.2667 70.4002V17.6002C76.2667 14.3589 73.6385 11.7335 70.4001 11.7335Z" fill="white"/>
</svg>
