<svg width="88" height="88" viewBox="0 0 88 88" fill="none" xmlns="http://www.w3.org/2000/svg">
<rect x="12" y="12" width="64" height="64" rx="6" fill="white"/>
<path d="M33.3291 18.3999C25.0965 18.3999 18.3999 25.1027 18.3999 33.3374V54.6707C18.3999 62.9033 25.1027 69.5999 33.3374 69.5999H54.6707C62.9033 69.5999 69.5999 62.8971 69.5999 54.6624V33.3291C69.5999 25.0965 62.8971 18.3999 54.6624 18.3999H33.3291ZM58.9332 26.9332C60.1108 26.9332 61.0666 27.889 61.0666 29.0666C61.0666 30.2442 60.1108 31.1999 58.9332 31.1999C57.7556 31.1999 56.7999 30.2442 56.7999 29.0666C56.7999 27.889 57.7556 26.9332 58.9332 26.9332ZM43.9999 31.1999C51.0591 31.1999 56.7999 36.9407 56.7999 43.9999C56.7999 51.0591 51.0591 56.7999 43.9999 56.7999C36.9407 56.7999 31.1999 51.0591 31.1999 43.9999C31.1999 36.9407 36.9407 31.1999 43.9999 31.1999ZM43.9999 35.4666C41.7367 35.4666 39.5662 36.3656 37.9659 37.9659C36.3656 39.5662 35.4666 41.7367 35.4666 43.9999C35.4666 46.2631 36.3656 48.4336 37.9659 50.0339C39.5662 51.6342 41.7367 52.5332 43.9999 52.5332C46.2631 52.5332 48.4336 51.6342 50.0339 50.0339C51.6342 48.4336 52.5332 46.2631 52.5332 43.9999C52.5332 41.7367 51.6342 39.5662 50.0339 37.9659C48.4336 36.3656 46.2631 35.4666 43.9999 35.4666Z" fill="#162944"/>
</svg>
