<svg width="60" height="60" viewBox="0 0 60 60" fill="none" xmlns="http://www.w3.org/2000/svg">
<g filter="url(#filter0_b_239_343)">
<circle cx="30" cy="30" r="30" fill="#010101" fill-opacity="0.12"/>
<circle cx="30" cy="30" r="29.5" stroke="white"/>
</g>
<path fill-rule="evenodd" clip-rule="evenodd" d="M13.2208 16.5763C13.2208 14.7229 14.7233 13.2203 16.5768 13.2203H43.4246C45.2781 13.2203 46.7806 14.7229 46.7806 16.5763V16.5763C46.7806 18.4298 45.2781 19.9323 43.4246 19.9323H16.5768C14.7233 19.9323 13.2208 18.4298 13.2208 16.5763V16.5763ZM13.2207 43.4237C13.2207 41.5702 14.7232 40.0677 16.5767 40.0677H43.4245C45.278 40.0677 46.7805 41.5702 46.7805 43.4237V43.4237C46.7805 45.2771 45.278 46.7797 43.4245 46.7797H16.5767C14.7232 46.7797 13.2207 45.2771 13.2207 43.4237V43.4237ZM46.7805 30.0001C46.7805 28.1467 45.278 26.6441 43.4245 26.6441H16.5767C14.7232 26.6441 13.2207 28.1467 13.2207 30.0001V30.0001C13.2207 31.8536 14.7232 33.3561 16.5767 33.3561H43.4245C45.278 33.3561 46.7805 31.8536 46.7805 30.0001V30.0001Z" fill="white"/>
<defs>
<filter id="filter0_b_239_343" x="-2" y="-2" width="64" height="64" filterUnits="userSpaceOnUse" color-interpolation-filters="sRGB">
<feFlood flood-opacity="0" result="BackgroundImageFix"/>
<feGaussianBlur in="BackgroundImage" stdDeviation="1"/>
<feComposite in2="SourceAlpha" operator="in" result="effect1_backgroundBlur_239_343"/>
<feBlend mode="normal" in="SourceGraphic" in2="effect1_backgroundBlur_239_343" result="shape"/>
</filter>
</defs>
</svg>
