<svg width="586" height="127" viewBox="0 0 586 127" fill="none" xmlns="http://www.w3.org/2000/svg">
<path d="M267 1.00752C253.4 4.20752 247.8 10.9075 245.8 26.2075L244.7 34.7075H240.9C238.1 34.7075 237 35.1075 237 36.2075C237 37.3075 238.1 37.7075 241 37.7075H245V62.7075V87.8075L242.5 90.1075C241.1 91.4075 240 92.7075 240 93.1075C240 93.4075 242.2 93.7075 244.9 93.7075C248.6 93.7075 251 92.9075 255.9 90.0075L262 86.4075V62.0075V37.7075H269.4C273.5 37.7075 277.6 38.0075 278.5 38.3075C282.2 39.8075 283 43.9075 283 62.7075V80.7075H291.5H300V57.7075V34.7075H280.9H261.7L262.2 25.9075C263.1 10.5075 270.7 1.30752 281 3.20752C286.2 4.20752 286.3 4.60752 283 7.70752C280.6 9.90752 280 11.3075 280 14.6075C280 20.5075 283.3 23.7075 289.4 23.7075C293.2 23.7075 294.2 23.2075 296.5 20.5075C298.8 17.8075 299.1 16.6075 298.7 13.0075C298.2 7.90752 296.1 5.30752 290.5 2.40752C285.5 -0.0924819 274.7 -0.792482 267 1.00752Z" fill="#009877"/>
<path d="M214 7.4076C207.8 9.7076 205.9 17.7076 210.5 22.2076C213.2 25.0076 219.3 25.6076 222.1 23.4076C227.1 19.5076 226.9 11.9076 221.7 8.7076C218.5 6.7076 216.7 6.4076 214 7.4076Z" fill="#009877"/>
<path d="M500 16.6074L496.5 17.2074L496.2 25.9074L495.9 34.7074H492.5C490.1 34.7074 489 35.2074 489 36.2074C489 37.2074 490.1 37.7074 492.5 37.7074H496V60.4074C496 80.6074 496.3 83.7074 497.9 87.4074C500.1 92.2074 502.3 93.6074 508.8 94.3074C514.7 95.0074 521.6 91.7074 524.3 87.0074C526.8 82.7074 525.5 80.7074 522.4 84.0074C519.3 87.4074 516.6 88.1074 513.3 86.5074C508.5 84.2074 508 82.0074 508 58.9074V37.7074H515C520.6 37.7074 522 37.4074 522 36.2074C522 35.0074 520.6 34.7074 515 34.7074H508V25.2074C508 14.6074 508.5 15.1074 500 16.6074Z" fill="#009877"/>
<path d="M10.3 36.4075C1.7 38.4075 0 39.2075 0 40.8075C0 41.8075 0.6 42.7075 1.3 42.7075C2.1 42.7075 3.5 43.5075 4.4 44.6075C5.9 46.3075 6 49.8075 5.8 83.2075C5.5 119.908 5.5 119.908 3.3 121.708C2 122.708 1 124.208 1 125.108C1 126.508 2.8 126.708 14 126.708C26.3 126.708 27 126.608 27 124.708C27 123.608 26.5 122.708 25.9 122.708C23.5 122.708 22 115.708 22 103.608C22 92.5075 22.1 91.5075 23.8 92.2075C29.3 94.4075 37.2 95.0075 44 93.8075C56.9 91.5075 65 83.4075 67 70.9075C68.2 63.4075 67 54.5075 64 48.1075C56.9 33.6075 36 29.3075 24.3 40.0075L22 42.0075V37.9075C22 35.6075 21.7 33.7075 21.3 33.8075C20.8 33.9075 15.9 35.0075 10.3 36.4075ZM40.9 41.2075C44.8 43.2075 47.1 48.7075 48.4 58.5075C49.5 67.9075 48.2 80.5075 45.5 85.7075C43.2 90.1075 38.1 92.1075 33 90.7075C24.5 88.4075 21.6 80.3075 22.1 61.2075C22.5 50.9075 22.8 48.7075 24.7 45.6075C26 43.6075 28 41.5075 29.2 40.9075C32.5 39.4075 37.6 39.5075 40.9 41.2075Z" fill="#009877"/>
<path d="M97 34.6076C85.2 38.5076 78.3 49.0076 84 54.7076C85.2 55.9076 87.3 56.7076 89.5 56.7076C94 56.7076 97 53.8076 97 49.4076C97 46.0076 94.6 42.7076 92 42.7076C89.4 42.7076 94.2 38.7076 97.6 38.1076C104.4 36.8076 108.8 42.4076 109.7 53.6076L110.3 60.4076L104.9 61.7076C85.8 66.2076 79.4 69.9076 78.1 77.4076C76.1 88.6076 83.8 96.0076 95.9 94.3076C100.7 93.6076 109 89.3076 109 87.5076C109 86.9076 110.6 88.0076 112.5 90.0076C116.5 94.2076 121.7 95.4076 128 93.7076C132.2 92.6076 138 88.0076 138 85.7076C138 84.1076 134.9 83.2076 134 84.7076C132.9 86.4076 128.5 85.2076 127.4 83.0076C127 82.0076 126.4 73.5076 126.1 64.2076C125.5 48.5076 125.3 46.9076 123 42.8076C119.8 37.0076 114.9 34.5076 106.2 34.1076C102.5 33.9076 98.4 34.1076 97 34.6076ZM110 71.6076C110 78.7076 109.7 79.9076 107.4 82.6076C103.3 87.5076 97.2 86.5076 95.1 80.6076C92.8 74.0076 98.6 67.3076 109.8 63.8076C109.9 63.7076 110 67.3076 110 71.6076Z" fill="#009877"/>
<path d="M167.1 34.7074C158.2 36.6074 149.7 43.5074 145.9 52.2074C138.9 68.0074 148 88.7074 163.9 93.4074C173.9 96.3074 185.7 93.2074 191.9 86.1074C196.9 80.5074 197.4 74.7074 192.7 77.7074C184.8 82.7074 179 83.7074 172.5 81.3074C162.3 77.4074 157.9 66.5074 161.1 52.7074C163.2 43.2074 171.8 35.6074 178.5 37.3074C181.4 38.0074 181.5 38.5074 179.5 41.1074C175.3 46.7074 179.6 54.7074 186.8 54.7074C193.4 54.7074 197.2 48.6074 194.7 42.4074C191.9 35.9074 178.8 32.3074 167.1 34.7074Z" fill="#009877"/>
<path d="M223.5 34.2075C223 34.4075 218.1 35.6075 212.8 36.8075C207.4 38.0075 203 39.4075 203 39.9075C203 40.4075 204.6 42.3075 206.5 44.1075L210 47.4075V64.3075C210 81.5075 209 88.4075 206.4 89.4075C205.6 89.7075 205 90.8075 205 91.8075C205 93.6075 205.9 93.7075 218 93.7075C230.3 93.7075 231 93.6075 231 91.7075C231 90.6075 230.5 89.7075 229.9 89.7075C229.4 89.7075 228.2 88.1075 227.4 86.2075C226.3 83.5075 226 77.4075 226 58.2075C226 44.7075 225.7 33.7075 225.3 33.8075C224.8 33.8075 224.1 34.0075 223.5 34.2075Z" fill="#009877"/>
<path d="M335.5 35.1075C326.6 37.9075 321.2 42.5075 316.9 50.7075C313.6 56.9075 313.5 71.0075 316.6 77.8075C318.6 82.1075 319.1 82.5075 326.6 85.1075C331 86.6075 336.7 89.3075 339.4 91.0075C344.7 94.4075 347 94.5075 353 92.1075C357.5 90.2075 360.7 87.1075 363.1 82.5075C366.4 76.0075 364.8 74.4075 360.2 79.8075C357 83.6075 350.8 86.6075 346 86.7075C340.9 86.7075 334 82.9075 330.8 78.2075C325.8 70.9075 325.4 55.7075 330 46.7075C334 38.9075 343.8 34.7075 351.3 37.6075L354.1 38.7075L352.1 41.3075C349.4 44.7075 349.5 46.3075 352.5 49.2075C355.4 52.2075 358.3 52.4075 361 49.7075C364 46.7075 363.5 43.0075 359.7 39.2075C354.5 34.0075 344.5 32.3075 335.5 35.1075Z" fill="#009877"/>
<path d="M392.7 35.1074C387.3 36.6074 381.6 40.8074 378.2 45.7074C370.1 57.7074 372 78.1074 382.2 87.3074C388.2 92.7074 392.2 94.1074 402 94.1074C409.4 94.2074 411.3 93.8074 416.3 91.3074C426.8 86.2074 431.5 76.6074 430.8 61.8074C430.5 54.6074 429.9 52.3074 427.5 47.8074C421.2 36.3074 407.3 31.2074 392.7 35.1074ZM408.9 38.2074C410.6 39.0074 412.8 41.6074 414.1 44.4074C416.3 48.8074 416.5 50.5074 416.5 64.2074C416.5 77.8074 416.3 79.6074 414.2 83.8074C411.3 89.9074 407 92.2074 400.4 91.4074C390.5 90.3074 386.5 81.2074 387.2 61.3074C387.8 43.2074 391.7 37.0074 402.3 36.8074C404.4 36.7074 407.4 37.4074 408.9 38.2074Z" fill="#009877"/>
<path d="M452.1 34.9075C444.3 37.1075 441 41.5075 441 49.7075C441 54.2075 441.4 55.2075 445.1 59.2075C447.4 61.7075 452.7 65.8075 456.9 68.4075C466.3 74.2075 469.9 77.3075 471.6 81.4075C474.2 87.5075 470.7 91.7075 462.9 91.7075C453.7 91.7075 446.2 85.1075 444.5 75.4075C444.1 73.2075 443.2 71.7075 442.4 71.7075C441.3 71.7075 441 73.7075 441 80.7075V89.7075L444.8 91.3075C446.8 92.1075 451.9 93.3075 456.1 94.0075C474.5 96.7075 485.7 88.3075 482 74.6075C480.6 69.4075 475.3 64.3075 464 57.4075C451.7 49.7075 448 43.2075 453.6 38.8075C457.1 36.1075 463.1 36.1075 468.6 38.7075C473.4 41.1075 475.2 43.5075 477.1 49.5075C479.2 56.6075 481 54.9075 481 45.8075C481 38.2075 480.9 37.9075 478.3 36.8075C471.1 33.9075 458.6 33.0075 452.1 34.9075Z" fill="#009877"/>
<path d="M548.7 35.1076C540 38.3076 534 45.8076 535.9 51.0076C538.3 57.3076 548 55.2076 548 48.4076C548 45.8076 545.7 42.7076 543.9 42.7076C541.8 42.7076 544.4 40.4076 548.6 38.5076C552.4 36.9076 553.4 36.8076 555.7 37.9076C560.6 40.3076 562.5 44.1076 562.8 52.5076L563.2 60.2076L555.8 62.1076C546.5 64.4076 537.8 68.2076 535 71.2076C530.3 76.2076 530.8 86.3076 535.9 90.9076C541.9 96.3076 555.9 95.1076 561.2 88.8076L563.7 86.0076L564.7 88.8076C566.2 92.7076 571.6 95.2076 576.5 94.3076C580.5 93.5076 586 88.9076 586 86.3076C586 84.3076 583.4 84.2076 582.6 86.2076C581.8 88.3076 579.6 88.1076 577.4 85.6076C575.7 83.7076 575.4 81.3076 575 64.8076C574.4 44.1076 573.5 40.6076 568 36.7076C564 33.9076 554.2 33.0076 548.7 35.1076ZM562.5 81.5076C561.8 84.4076 556.4 87.7076 552.4 87.7076C547.8 87.7076 544 83.5076 544 78.5076C544 73.3076 548.6 68.4076 556.5 65.2076L562.5 62.8076L562.8 71.0076C563 75.5076 562.8 80.2076 562.5 81.5076Z" fill="#009877"/>
</svg>
