<svg width="586" height="127" viewBox="0 0 586 127" fill="currentColor" xmlns="http://www.w3.org/2000/svg">
<path d="M267 1.00741C253.4 4.20741 247.8 10.9074 245.8 26.2074L244.7 34.7074H240.9C238.1 34.7074 237 35.1074 237 36.2074C237 37.3074 238.1 37.7074 241 37.7074H245V62.7074V87.8074L242.5 90.1074C241.1 91.4074 240 92.7074 240 93.1074C240 93.4074 242.2 93.7074 244.9 93.7074C248.6 93.7074 251 92.9074 255.9 90.0074L262 86.4074V62.0074V37.7074H269.4C273.5 37.7074 277.6 38.0074 278.5 38.3074C282.2 39.8074 283 43.9074 283 62.7074V80.7074H291.5H300V57.7074V34.7074H280.9H261.7L262.2 25.9074C263.1 10.5074 270.7 1.30741 281 3.20741C286.2 4.20741 286.3 4.60741 283 7.70741C280.6 9.90741 280 11.3074 280 14.6074C280 20.5074 283.3 23.7074 289.4 23.7074C293.2 23.7074 294.2 23.2074 296.5 20.5074C298.8 17.8074 299.1 16.6074 298.7 13.0074C298.2 7.90741 296.1 5.30741 290.5 2.40741C285.5 -0.09259 274.7 -0.79259 267 1.00741Z" fill="black"/>
<path d="M214 7.40742C207.8 9.70742 205.9 17.7074 210.5 22.2074C213.2 25.0074 219.3 25.6074 222.1 23.4074C227.1 19.5074 226.9 11.9074 221.7 8.70742C218.5 6.70742 216.7 6.40742 214 7.40742Z" fill="black"/>
<path d="M500 16.6075L496.5 17.2074L496.2 25.9074L495.9 34.7074H492.5C490.1 34.7074 489 35.2074 489 36.2074C489 37.2074 490.1 37.7074 492.5 37.7074H496V60.4074C496 80.6074 496.3 83.7074 497.9 87.4074C500.1 92.2074 502.3 93.6074 508.8 94.3074C514.7 95.0074 521.6 91.7074 524.3 87.0074C526.8 82.7074 525.5 80.7074 522.4 84.0074C519.3 87.4074 516.6 88.1074 513.3 86.5074C508.5 84.2074 508 82.0074 508 58.9074V37.7074H515C520.6 37.7074 522 37.4074 522 36.2074C522 35.0074 520.6 34.7074 515 34.7074H508V25.2074C508 14.6075 508.5 15.1075 500 16.6075Z" fill="black"/>
<path d="M10.3 36.4074C1.7 38.4074 0 39.2074 0 40.8074C0 41.8074 0.6 42.7074 1.3 42.7074C2.1 42.7074 3.5 43.5074 4.4 44.6074C5.9 46.3074 6 49.8074 5.8 83.2074C5.5 119.907 5.5 119.907 3.3 121.707C2 122.707 1 124.207 1 125.107C1 126.507 2.8 126.707 14 126.707C26.3 126.707 27 126.607 27 124.707C27 123.607 26.5 122.707 25.9 122.707C23.5 122.707 22 115.707 22 103.607C22 92.5074 22.1 91.5074 23.8 92.2074C29.3 94.4074 37.2 95.0074 44 93.8074C56.9 91.5074 65 83.4074 67 70.9074C68.2 63.4074 67 54.5074 64 48.1074C56.9 33.6074 36 29.3074 24.3 40.0074L22 42.0074V37.9074C22 35.6074 21.7 33.7074 21.3 33.8074C20.8 33.9074 15.9 35.0074 10.3 36.4074ZM40.9 41.2074C44.8 43.2074 47.1 48.7074 48.4 58.5074C49.5 67.9074 48.2 80.5074 45.5 85.7074C43.2 90.1074 38.1 92.1074 33 90.7074C24.5 88.4074 21.6 80.3074 22.1 61.2074C22.5 50.9074 22.8 48.7074 24.7 45.6074C26 43.6074 28 41.5074 29.2 40.9074C32.5 39.4074 37.6 39.5074 40.9 41.2074Z" fill="black"/>
<path d="M97.0003 34.6074C85.2003 38.5074 78.3003 49.0074 84.0003 54.7074C85.2003 55.9074 87.3003 56.7074 89.5003 56.7074C94.0003 56.7074 97.0003 53.8074 97.0003 49.4074C97.0003 46.0074 94.6003 42.7074 92.0003 42.7074C89.4003 42.7074 94.2003 38.7074 97.6003 38.1074C104.4 36.8074 108.8 42.4074 109.7 53.6074L110.3 60.4074L104.9 61.7074C85.8003 66.2074 79.4003 69.9074 78.1003 77.4074C76.1003 88.6074 83.8003 96.0074 95.9003 94.3074C100.7 93.6074 109 89.3074 109 87.5074C109 86.9074 110.6 88.0074 112.5 90.0074C116.5 94.2074 121.7 95.4074 128 93.7074C132.2 92.6074 138 88.0074 138 85.7074C138 84.1074 134.9 83.2074 134 84.7074C132.9 86.4074 128.5 85.2074 127.4 83.0074C127 82.0074 126.4 73.5074 126.1 64.2074C125.5 48.5074 125.3 46.9074 123 42.8074C119.8 37.0074 114.9 34.5074 106.2 34.1074C102.5 33.9074 98.4003 34.1074 97.0003 34.6074ZM110 71.6074C110 78.7074 109.7 79.9074 107.4 82.6074C103.3 87.5074 97.2003 86.5074 95.1003 80.6074C92.8003 74.0074 98.6003 67.3074 109.8 63.8074C109.9 63.7074 110 67.3074 110 71.6074Z" fill="black"/>
<path d="M167.1 34.7074C158.2 36.6074 149.7 43.5074 145.9 52.2074C138.9 68.0074 148 88.7074 163.9 93.4074C173.9 96.3074 185.7 93.2074 191.9 86.1074C196.9 80.5074 197.4 74.7074 192.7 77.7074C184.8 82.7074 179 83.7074 172.5 81.3074C162.3 77.4074 157.9 66.5074 161.1 52.7074C163.2 43.2074 171.8 35.6074 178.5 37.3074C181.4 38.0074 181.5 38.5074 179.5 41.1074C175.3 46.7074 179.6 54.7074 186.8 54.7074C193.4 54.7074 197.2 48.6074 194.7 42.4074C191.9 35.9074 178.8 32.3074 167.1 34.7074Z" fill="black"/>
<path d="M223.5 34.2074C223 34.4074 218.1 35.6074 212.8 36.8074C207.4 38.0074 203 39.4074 203 39.9074C203 40.4074 204.6 42.3074 206.5 44.1074L210 47.4074V64.3074C210 81.5074 209 88.4074 206.4 89.4074C205.6 89.7074 205 90.8074 205 91.8074C205 93.6074 205.9 93.7074 218 93.7074C230.3 93.7074 231 93.6074 231 91.7074C231 90.6074 230.5 89.7074 229.9 89.7074C229.4 89.7074 228.2 88.1074 227.4 86.2074C226.3 83.5074 226 77.4074 226 58.2074C226 44.7074 225.7 33.7074 225.3 33.8074C224.8 33.8074 224.1 34.0074 223.5 34.2074Z" fill="black"/>
<path d="M335.5 35.1074C326.6 37.9074 321.2 42.5074 316.9 50.7074C313.6 56.9074 313.5 71.0074 316.6 77.8074C318.6 82.1074 319.1 82.5074 326.6 85.1074C331 86.6074 336.7 89.3074 339.4 91.0074C344.7 94.4074 347 94.5074 353 92.1074C357.5 90.2074 360.7 87.1074 363.1 82.5074C366.4 76.0074 364.8 74.4074 360.2 79.8074C357 83.6074 350.8 86.6074 346 86.7074C340.9 86.7074 334 82.9074 330.8 78.2074C325.8 70.9074 325.4 55.7074 330 46.7074C334 38.9074 343.8 34.7074 351.3 37.6074L354.1 38.7074L352.1 41.3074C349.4 44.7074 349.5 46.3074 352.5 49.2074C355.4 52.2074 358.3 52.4074 361 49.7074C364 46.7074 363.5 43.0074 359.7 39.2074C354.5 34.0074 344.5 32.3074 335.5 35.1074Z" fill="black"/>
<path d="M392.7 35.1074C387.3 36.6074 381.6 40.8074 378.2 45.7074C370.1 57.7074 372 78.1074 382.2 87.3074C388.2 92.7074 392.2 94.1074 402 94.1074C409.4 94.2074 411.3 93.8074 416.3 91.3074C426.8 86.2074 431.5 76.6074 430.8 61.8074C430.5 54.6074 429.9 52.3074 427.5 47.8074C421.2 36.3074 407.3 31.2074 392.7 35.1074ZM408.9 38.2074C410.6 39.0074 412.8 41.6074 414.1 44.4074C416.3 48.8074 416.5 50.5074 416.5 64.2074C416.5 77.8074 416.3 79.6074 414.2 83.8074C411.3 89.9074 407 92.2074 400.4 91.4074C390.5 90.3074 386.5 81.2074 387.2 61.3074C387.8 43.2074 391.7 37.0074 402.3 36.8074C404.4 36.7074 407.4 37.4074 408.9 38.2074Z" fill="black"/>
<path d="M452.1 34.9074C444.3 37.1074 441 41.5074 441 49.7074C441 54.2074 441.4 55.2074 445.1 59.2074C447.4 61.7074 452.7 65.8074 456.9 68.4074C466.3 74.2074 469.9 77.3074 471.6 81.4074C474.2 87.5074 470.7 91.7074 462.9 91.7074C453.7 91.7074 446.2 85.1074 444.5 75.4074C444.1 73.2074 443.2 71.7074 442.4 71.7074C441.3 71.7074 441 73.7074 441 80.7074V89.7074L444.8 91.3074C446.8 92.1074 451.9 93.3074 456.1 94.0074C474.5 96.7074 485.7 88.3074 482 74.6074C480.6 69.4074 475.3 64.3074 464 57.4074C451.7 49.7074 448 43.2074 453.6 38.8074C457.1 36.1074 463.1 36.1074 468.6 38.7074C473.4 41.1074 475.2 43.5074 477.1 49.5074C479.2 56.6074 481 54.9074 481 45.8074C481 38.2074 480.9 37.9074 478.3 36.8074C471.1 33.9074 458.6 33.0074 452.1 34.9074Z" fill="black"/>
<path d="M548.7 35.1074C540 38.3074 534 45.8074 535.9 51.0074C538.3 57.3074 548 55.2074 548 48.4074C548 45.8074 545.7 42.7074 543.9 42.7074C541.8 42.7074 544.4 40.4074 548.6 38.5074C552.4 36.9074 553.4 36.8074 555.7 37.9074C560.6 40.3074 562.5 44.1074 562.8 52.5074L563.2 60.2074L555.8 62.1074C546.5 64.4074 537.8 68.2074 535 71.2074C530.3 76.2074 530.8 86.3074 535.9 90.9074C541.9 96.3074 555.9 95.1074 561.2 88.8074L563.7 86.0074L564.7 88.8074C566.2 92.7074 571.6 95.2074 576.5 94.3074C580.5 93.5074 586 88.9074 586 86.3074C586 84.3074 583.4 84.2074 582.6 86.2074C581.8 88.3074 579.6 88.1074 577.4 85.6074C575.7 83.7074 575.4 81.3074 575 64.8074C574.4 44.1074 573.5 40.6074 568 36.7074C564 33.9074 554.2 33.0074 548.7 35.1074ZM562.5 81.5074C561.8 84.4074 556.4 87.7074 552.4 87.7074C547.8 87.7074 544 83.5074 544 78.5074C544 73.3074 548.6 68.4074 556.5 65.2074L562.5 62.8074L562.8 71.0074C563 75.5074 562.8 80.2074 562.5 81.5074Z" fill="black"/>
</svg>
