<svg width="600" height="129" viewBox="0 0 600 129" fill="none" xmlns="http://www.w3.org/2000/svg">
<path d="M272.138 1.69921C259.388 5.1524 253.544 12.7229 252.614 27.3325L252.083 35.6998H247.567C245.043 35.6998 243.051 36.2311 243.051 37.028C243.051 37.6921 245.176 38.3561 247.7 38.3561H252.348V60.5362C252.348 82.0522 251.02 92.8102 248.364 92.8102C247.567 92.8102 247.036 93.3415 247.036 94.1384C247.036 96.6619 254.208 95.4665 260.981 92.0133L267.755 88.4273L267.224 63.4581L266.692 38.3561H276.786C286.615 38.3561 286.88 38.4889 288.872 42.3406C290.333 45.2625 290.865 50.7079 290.865 64.255V82.3179L298.568 81.9194L306.138 81.521V58.9424V36.3639L286.482 35.9655L266.825 35.567L267.622 27.9966C269.083 15.2463 270.677 10.9963 275.591 6.61336C279.044 3.55862 281.568 2.4961 285.286 2.4961C292.99 2.4961 294.451 4.08988 290.333 8.20714C286.216 12.3244 285.95 15.6448 289.669 20.2933C295.248 27.3325 305.474 23.0824 305.474 13.7854C305.474 2.62892 289.802 -3.08212 272.138 1.69921Z" fill="white"/>
<path d="M509.611 18.035C509.08 18.4334 508.681 22.6835 508.681 27.332C508.681 35.4337 508.548 35.6994 505.361 35.6994C503.501 35.6994 502.041 36.2306 502.041 37.0275C502.041 37.6916 503.501 38.3557 505.228 38.3557H508.548L508.947 62.7936C509.345 85.2393 509.611 87.63 512.134 91.0832C514.525 94.2707 515.986 94.802 522.228 95.2005C528.604 95.5989 530.197 95.0676 533.783 92.1457C539.229 87.4972 539.494 83.5127 534.049 87.63C530.861 89.8879 529.533 90.2863 526.346 89.2238C520.767 87.3644 519.439 81.7861 519.439 58.5435L519.306 38.3557H526.478C530.463 38.3557 534.182 37.6916 534.58 37.0275C535.111 36.2306 532.322 35.6994 527.408 35.6994H519.306V26.4023V17.1053H514.924C512.4 17.1053 510.009 17.5037 509.611 18.035Z" fill="white"/>
<path d="M35.1959 35.8323C32.274 36.4964 28.1568 38.4886 26.2973 40.348C24.3051 42.2074 22.4457 43.6684 22.3129 43.6684C22.0473 43.6684 21.6488 42.0746 21.516 40.0824C21.3832 38.223 20.9848 36.3636 20.7191 35.9651C19.9222 35.1682 0 39.6839 0 40.6136C0 41.0121 1.46096 42.7387 3.32037 44.4653L6.77356 47.6528L6.37511 84.7082C5.97667 117.779 5.71104 122.029 3.71882 124.287C2.39067 125.748 1.32815 127.342 1.32815 127.74C1.32815 128.271 7.03919 128.67 13.9456 128.67C20.8519 128.67 26.563 128.271 26.563 127.74C26.563 127.342 25.6333 125.881 24.4379 124.553C22.977 122.959 22.1801 118.178 21.6488 107.287C20.8519 92.9427 20.9848 92.4115 23.3754 93.474C27.4927 95.3334 44.0945 95.8646 49.4071 94.138C55.7823 92.2786 63.6183 85.5051 65.8762 79.9269C68.7981 73.1533 68.2669 56.5514 65.0793 50.3091C58.9698 38.3558 47.8134 33.0432 35.1959 35.8323ZM42.2351 41.809C47.9462 45.7934 49.6728 51.2388 49.6728 66.2469C49.8056 82.716 47.9462 89.3567 42.5008 92.1458C37.4538 94.8021 34.6647 94.6693 29.6177 91.4818C24.0395 88.1614 21.2504 78.8643 21.2504 64.3875C21.2504 52.0357 24.4379 43.1371 29.4849 41.0121C34.1334 39.1527 38.9148 39.4183 42.2351 41.809Z" fill="white"/>
<path d="M99.744 35.6996C94.033 37.0278 88.986 40.8794 85.7984 46.192C83.5406 50.0436 83.5406 50.5749 85.5328 53.6296C87.9235 57.2156 93.9002 58.1453 96.6893 55.3562C99.3456 52.6999 98.5487 46.7232 95.3611 44.3326C92.3064 42.2075 92.3064 42.2075 94.9627 40.2153C96.4236 39.1528 99.6112 38.3559 102.135 38.6215C108.377 39.1528 111.565 43.9341 112.494 54.0281L113.291 62.1298L107.447 63.5907C84.0719 69.5674 79.689 72.6221 79.689 82.4504C79.689 92.4116 85.5328 96.396 98.4159 95.2007C103.33 94.6694 106.119 93.6069 108.51 91.0834L111.963 87.6302L115.682 91.6147C118.737 94.8022 120.33 95.4663 125.909 95.4663C130.557 95.4663 133.479 94.6694 136.002 92.6772C140.12 89.4896 140.917 85.2396 136.932 87.3646C135.206 88.2943 133.745 88.1615 132.018 86.8333C129.76 85.2396 129.362 82.7161 128.83 66.6455C128.034 46.7232 126.573 42.0747 119.666 37.9575C115.283 35.434 105.588 34.2386 99.744 35.6996ZM112.893 73.0206C112.893 82.3176 111.432 85.7708 106.65 87.6302C104.127 88.5599 102.4 88.4271 100.142 86.8333C93.2361 82.3176 95.6268 72.3565 104.658 67.708C112.361 63.5907 112.893 63.9892 112.893 73.0206Z" fill="white"/>
<path d="M173.058 35.6996C156.854 39.02 147.424 50.3093 147.424 66.247C147.424 74.2159 153.003 85.3724 159.776 90.685C164.557 94.5366 165.62 94.8022 175.847 94.8022C185.277 94.8022 187.402 94.4038 191.519 91.4819C196.3 88.2943 201.48 81.2551 200.019 79.927C199.621 79.5285 196.566 80.5911 193.245 82.1848C186.206 85.638 177.706 85.3724 171.862 81.5208C160.307 73.9503 161.104 46.8561 173.19 39.5513C179.831 35.5668 189.128 37.0278 184.745 41.4107C182.487 43.6685 183.019 50.9733 185.675 53.364C190.988 58.1453 199.222 54.4265 199.222 47.1217C199.222 38.3559 186.738 32.9105 173.058 35.6996Z" fill="white"/>
<path d="M219.808 37.4262C213.965 38.8872 208.918 40.2153 208.652 40.4809C208.386 40.7466 209.715 42.4732 211.574 44.1998C215.16 47.5201 215.16 47.6529 215.16 67.3095C215.16 85.1067 214.894 87.4974 212.504 90.5522C211.043 92.4116 209.847 94.271 209.847 94.6694C209.847 95.0679 215.824 95.4663 223.129 95.4663C230.434 95.4663 236.41 95.0679 236.41 94.5366C236.41 94.1382 235.348 92.5444 234.152 91.0834C232.027 88.9584 231.629 84.8411 231.098 61.7313L230.434 34.9027L219.808 37.4262Z" fill="white"/>
<path d="M349.968 35.0356C349.304 35.3013 346.515 35.8325 343.859 36.231C338.015 37.2935 328.85 44.8639 325.397 51.7703C321.944 58.4111 321.811 73.0207 325.132 79.3958C326.991 82.9818 328.983 84.4428 335.491 86.8334C339.874 88.2944 345.718 91.0835 348.507 92.6773C352.093 94.9352 354.484 95.5992 357.406 94.9352C362.851 93.8726 368.828 89.4897 371.218 84.8412C374.406 78.7317 373.609 77.5364 369.359 82.0521C359.398 92.6773 343.726 90.6851 337.218 77.9348C331.108 65.8487 334.827 45.528 344.257 39.6842C349.304 36.6294 358.203 36.231 361.789 38.7544C364.046 40.3482 364.046 40.6139 362.054 41.4107C359.531 42.3404 359.265 47.7859 361.523 50.0437C364.046 52.5672 368.961 51.9031 370.687 48.8484C372.679 44.9967 370.554 40.481 365.64 37.9576C361.789 35.9653 352.226 34.1059 349.968 35.0356Z" fill="white"/>
<path d="M404.82 35.5672C392.202 38.0907 382.507 51.1066 382.507 65.5834C382.507 77.5367 389.679 89.4901 399.374 93.6073C404.421 95.7324 419.031 96.2636 423.812 94.4042C429.39 92.1464 435.898 85.9041 438.422 80.193C441.477 73.4195 441.742 58.8098 438.82 51.9035C433.641 39.4189 419.695 32.6453 404.82 35.5672ZM420.359 39.1532C425.539 42.6064 427.797 50.3097 427.797 65.7162C427.797 87.0994 423.679 94.1386 411.195 94.1386C408.804 94.1386 405.218 92.9433 403.359 91.3495C393.265 83.5134 393.265 47.6534 403.359 39.8173C407.476 36.4969 415.843 36.0985 420.359 39.1532Z" fill="white"/>
<path d="M465.516 35.5671C463.391 36.0983 460.071 37.2937 458.477 38.2234C454.625 40.2156 451.039 48.3173 452.102 52.4346C453.43 57.6143 460.602 64.6535 470.563 70.4974C487.962 80.857 489.954 94.1384 474.016 94.1384C466.712 94.1384 460.071 90.2868 457.68 84.5758C456.618 82.1851 455.157 78.7319 454.493 76.8725C453.297 74.0834 453.032 75.0131 453.032 82.5835C452.899 91.0837 453.032 91.615 456.618 93.0759C458.61 93.8728 465.118 94.8025 470.962 95.201C487.298 95.9979 494.071 91.7478 494.071 80.5913C494.071 74.0834 489.024 68.1067 477.47 60.6691C465.383 52.9658 462.329 49.7783 462.196 44.7313C462.196 39.5515 465.383 37.028 472.024 37.028C479.86 37.028 486.102 41.4109 489.024 48.9814L491.282 54.958L491.017 46.4579C490.751 38.489 490.485 37.8249 487.431 37.028C481.321 35.4343 469.501 34.6374 465.516 35.5671Z" fill="white"/>
<path d="M567.784 35.0355C567.12 35.3012 564.862 35.8324 562.869 36.2309C557.158 37.559 549.854 44.5982 549.854 48.8483C549.854 55.489 555.963 58.0125 559.682 52.8327C561.807 49.778 561.143 46.5904 558.088 44.1998C555.299 42.2075 557.026 39.9497 563.002 38.2231C572.166 35.434 577.745 41.9419 577.745 55.3562V61.8641L568.846 64.2548C551.182 68.9033 545.869 73.2862 545.869 83.2473C545.869 91.6147 550.385 95.4663 560.213 95.4663C567.651 95.4663 576.417 91.6147 576.417 88.4271C576.417 87.4974 578.01 88.8256 579.87 91.0834C582.792 94.8022 584.12 95.4663 588.901 95.4663C593.151 95.4663 595.276 94.6694 597.667 92.1459C601.253 88.2943 600.589 86.4349 596.472 89.0912C591.425 92.1459 590.362 89.0912 589.565 67.8408C588.768 46.9889 587.307 41.6763 581.331 37.8246C578.276 35.8324 570.174 34.1058 567.784 35.0355ZM577.745 73.5519C577.745 82.4504 577.346 84.0442 574.424 86.8333C569.909 91.4819 563.002 91.349 559.283 86.7005C555.432 81.9192 555.83 77.6691 560.213 72.755C563.401 69.169 572.963 63.9892 576.815 63.7236C577.346 63.5907 577.745 68.1064 577.745 73.5519Z" fill="white"/>
<path d="M213.168 16.6017C213.168 12.3501 216.488 7.96875 222.465 7.96875C226.449 7.96875 230.434 11.5961 230.434 15.9376C230.434 20.2792 228.155 24.5706 221.801 24.5706C215.824 24.5706 213.168 20.8533 213.168 16.6017Z" fill="white"/>
</svg>
