<svg width="620" height="152" viewBox="0 0 620 152" fill="currentColor" xmlns="http://www.w3.org/2000/svg">
<g filter="url(#filter0_d_325_84)">
<path d="M280.788 9.65969C268.336 13.0326 262.628 20.427 261.72 34.6969L261.201 42.8696H256.791C254.325 42.8696 252.38 43.3885 252.38 44.1669C252.38 44.8155 254.455 45.4641 256.92 45.4641H261.46V67.1284C261.46 88.144 260.163 98.6518 257.569 98.6518C256.791 98.6518 256.272 99.1708 256.272 99.9491C256.272 102.414 263.277 101.246 269.892 97.8734L276.507 94.3708L275.989 69.9823L275.469 45.4641H285.328C294.927 45.4641 295.186 45.5938 297.132 49.3559C298.559 52.2099 299.078 57.5286 299.078 70.7607V88.4035L306.601 88.0143L313.995 87.6252V65.5716V43.5182L294.797 43.1291L275.599 42.7399L276.378 35.3455C277.804 22.8917 279.361 18.7406 284.161 14.4596C287.533 11.4759 289.998 10.438 293.629 10.438C301.154 10.438 302.581 11.9948 298.559 16.0163C294.538 20.0378 294.278 23.281 297.91 27.8214C303.359 34.6969 313.346 30.5456 313.346 21.4648C313.346 10.5678 298.04 4.98955 280.788 9.65969Z" fill="white"/>
</g>
<g filter="url(#filter1_d_325_84)">
<path d="M512.72 25.6156C512.201 26.0047 511.812 30.156 511.812 34.6964C511.812 42.6097 511.682 42.8692 508.569 42.8692C506.753 42.8692 505.327 43.388 505.327 44.1664C505.327 44.8151 506.753 45.4637 508.439 45.4637H511.682L512.072 69.3333C512.46 91.257 512.72 93.5921 515.184 96.965C517.519 100.078 518.946 100.597 525.043 100.987C531.27 101.376 532.826 100.857 536.328 98.0028C541.647 93.4624 541.906 89.5705 536.588 93.5921C533.474 95.7975 532.177 96.1866 529.065 95.1488C523.616 93.3327 522.319 87.8841 522.319 65.182L522.189 45.4637H529.194C533.086 45.4637 536.718 44.8151 537.106 44.1664C537.625 43.388 534.901 42.8692 530.102 42.8692H522.189V33.7883V24.7075H517.909C515.444 24.7075 513.109 25.0966 512.72 25.6156Z" fill="white"/>
</g>
<g filter="url(#filter2_d_325_84)">
<path d="M49.3747 42.999C46.5209 43.6476 42.4998 45.5935 40.6837 47.4097C38.738 49.2258 36.922 50.6529 36.7923 50.6529C36.5329 50.6529 36.1437 49.0961 36.014 47.1502C35.8843 45.3341 35.4952 43.5179 35.2357 43.1287C34.4573 42.3503 15 46.761 15 47.6691C15 48.0583 16.4269 49.7448 18.2429 51.4312L21.6155 54.5446L21.2264 90.7382C20.8372 123.04 20.5778 127.191 18.632 129.397C17.3349 130.824 16.2972 132.381 16.2972 132.769C16.2972 133.288 21.8749 133.678 28.6202 133.678C35.3654 133.678 40.9432 133.288 40.9432 132.769C40.9432 132.381 40.0352 130.954 38.8677 129.656C37.4409 128.099 36.6626 123.43 36.1437 112.792C35.3654 98.7812 35.4952 98.2624 37.83 99.3002C41.8512 101.116 58.0656 101.635 63.2543 99.9487C69.4807 98.1326 77.1339 91.5166 79.3391 86.0681C82.1928 79.4521 81.674 63.2362 78.5608 57.1391C72.5938 45.4638 61.6978 40.2747 49.3747 42.999ZM56.2496 48.8367C61.8275 52.7284 63.5138 58.0472 63.5138 72.7063C63.6435 88.7924 61.8275 95.2786 56.5091 98.0029C51.5799 100.597 48.8559 100.468 43.9266 97.3543C38.4786 94.1111 35.7546 85.0302 35.7546 70.8901C35.7546 58.8256 38.8677 50.1339 43.7969 48.0583C48.337 46.2422 53.0068 46.5016 56.2496 48.8367Z" fill="white"/>
</g>
<g filter="url(#filter3_d_325_84)">
<path d="M112.417 42.8694C106.839 44.1667 101.91 47.9287 98.7964 53.1178C96.5913 56.8798 96.5913 57.3987 98.537 60.3824C100.872 63.885 106.709 64.7931 109.433 62.0688C112.028 59.4743 111.249 53.6366 108.136 51.3016C105.153 49.2259 105.153 49.2259 107.747 47.2801C109.174 46.2423 112.287 45.4639 114.752 45.7233C120.848 46.2423 123.962 50.9124 124.869 60.7716L125.648 68.6849L119.94 70.1118C97.1102 75.9496 92.8296 78.9332 92.8296 88.533C92.8296 98.2625 98.537 102.154 111.12 100.987C115.919 100.468 118.643 99.43 120.978 96.9652L124.351 93.5923L127.983 97.4841C130.966 100.597 132.522 101.246 137.971 101.246C142.511 101.246 145.364 100.468 147.829 98.5219C151.851 95.4084 152.629 91.2573 148.737 93.3329C147.051 94.2409 145.624 94.1112 143.938 92.8139C141.732 91.2573 141.344 88.7925 140.824 73.0956C140.047 53.6366 138.62 49.0962 131.874 45.0748C127.593 42.61 118.124 41.4424 112.417 42.8694ZM125.259 79.3224C125.259 88.4032 123.832 91.7761 119.161 93.5923C116.697 94.5004 115.011 94.3707 112.805 92.8139C106.061 88.4032 108.396 78.6738 117.216 74.1334C124.739 70.1118 125.259 70.5011 125.259 79.3224Z" fill="white"/>
</g>
<g filter="url(#filter4_d_325_84)">
<path d="M184.02 42.8694C168.194 46.1126 158.984 57.1393 158.984 72.7064C158.984 80.49 164.433 91.387 171.048 96.576C175.717 100.338 176.756 100.598 186.744 100.598C195.954 100.598 198.029 100.208 202.05 97.3544C206.72 94.2409 211.779 87.3655 210.352 86.0682C209.963 85.679 206.979 86.7169 203.736 88.2735C196.861 91.6464 188.56 91.387 182.852 87.625C171.567 80.2305 172.345 53.7664 184.149 46.6315C190.635 42.7397 199.715 44.1667 195.434 48.4477C193.229 50.653 193.749 57.7879 196.343 60.123C201.532 64.7931 209.574 61.1608 209.574 54.0259C209.574 45.4639 197.381 40.1451 184.02 42.8694Z" fill="white"/>
</g>
<g filter="url(#filter5_d_325_84)">
<path d="M229.679 44.5558C223.972 45.9828 219.043 47.2801 218.783 47.5395C218.524 47.799 219.822 49.4854 221.637 51.1719C225.14 54.415 225.14 54.5447 225.14 73.7442C225.14 91.1275 224.88 93.4626 222.545 96.4463C221.119 98.2625 219.95 100.079 219.95 100.468C219.95 100.857 225.788 101.246 232.923 101.246C240.057 101.246 245.894 100.857 245.894 100.338C245.894 99.9489 244.856 98.3922 243.688 96.9652C241.613 94.8896 241.224 90.868 240.706 68.2957L240.057 42.091L229.679 44.5558Z" fill="white"/>
</g>
<g filter="url(#filter6_d_325_84)">
<path d="M356.802 42.2208C356.154 42.4803 353.43 42.9992 350.836 43.3884C345.128 44.4262 336.177 51.8206 332.804 58.5663C329.432 65.0527 329.302 79.3225 332.546 85.5494C334.361 89.052 336.307 90.479 342.663 92.814C346.944 94.241 352.651 96.9653 355.375 98.522C358.878 100.727 361.213 101.376 364.067 100.727C369.385 99.6895 375.222 95.4085 377.556 90.8681C380.67 84.9007 379.891 83.7332 375.741 88.1439C366.012 98.522 350.706 96.5761 344.35 84.1224C338.382 72.3173 342.014 52.4692 351.224 46.7613C356.154 43.7775 364.845 43.3884 368.347 45.8531C370.552 47.4099 370.552 47.6694 368.606 48.4477C366.142 49.3557 365.882 54.6746 368.087 56.8799C370.552 59.3447 375.352 58.696 377.038 55.7124C378.983 51.9503 376.908 47.5396 372.108 45.0749C368.347 43.1289 359.007 41.3127 356.802 42.2208Z" fill="white"/>
</g>
<g filter="url(#filter7_d_325_84)">
<path d="M410.374 42.7401C398.051 45.2049 388.582 57.9181 388.582 72.0582C388.582 83.7335 395.586 95.4089 405.055 99.4304C409.984 101.506 424.254 102.025 428.923 100.209C434.371 98.0035 440.727 91.9063 443.192 86.3281C446.176 79.7121 446.435 65.4421 443.581 58.6964C438.523 46.5022 424.902 39.8861 410.374 42.7401ZM425.551 46.2427C430.61 49.6156 432.815 57.1397 432.815 72.1879C432.815 93.0738 428.793 99.9493 416.6 99.9493C414.265 99.9493 410.763 98.7818 408.947 97.2251C399.089 89.5712 399.089 54.5452 408.947 46.8913C412.968 43.6481 421.14 43.259 425.551 46.2427Z" fill="white"/>
</g>
<g filter="url(#filter8_d_325_84)">
<path d="M469.654 42.74C467.579 43.2588 464.336 44.4264 462.779 45.3345C459.017 47.2803 455.515 55.1936 456.553 59.2152C457.85 64.2744 464.855 71.1499 474.583 76.8579C491.576 86.9766 493.522 99.9491 477.956 99.9491C470.822 99.9491 464.336 96.1871 462.001 90.6089C460.964 88.2738 459.537 84.9009 458.888 83.0848C457.72 80.3605 457.461 81.2686 457.461 88.6629C457.331 96.9655 457.461 97.4844 460.964 98.9113C462.909 99.6897 469.265 100.598 474.973 100.987C490.928 101.765 497.543 97.6141 497.543 86.7171C497.543 80.3605 492.613 74.5228 481.329 67.2582C469.524 59.734 466.541 56.6207 466.411 51.691C466.411 46.6317 469.524 44.1669 476.01 44.1669C483.663 44.1669 489.76 48.4478 492.613 55.8423L494.819 61.6799L494.56 53.3775C494.3 45.5939 494.04 44.9452 491.058 44.1669C485.09 42.6102 473.546 41.8319 469.654 42.74Z" fill="white"/>
</g>
<g filter="url(#filter9_d_325_84)">
<path d="M569.536 42.2207C568.887 42.4802 566.682 42.9991 564.735 43.3883C559.158 44.6855 552.024 51.561 552.024 55.7123C552.024 62.1986 557.991 64.6634 561.623 59.604C563.698 56.6204 563.05 53.5069 560.066 51.1719C557.342 49.2259 559.029 47.0206 564.865 45.3342C573.815 42.61 579.264 48.9665 579.264 62.0689V68.4254L570.573 70.7605C553.321 75.3009 548.132 79.5819 548.132 89.3113C548.132 97.4841 552.543 101.246 562.141 101.246C569.406 101.246 577.967 97.4841 577.967 94.3707C577.967 93.4626 579.523 94.7599 581.34 96.9652C584.194 100.597 585.491 101.246 590.16 101.246C594.311 101.246 596.386 100.468 598.721 98.003C602.224 94.2409 601.575 92.4248 597.554 95.0193C592.625 98.003 591.587 95.0193 590.808 74.2631C590.03 53.8961 588.603 48.7071 582.767 44.945C579.783 42.9991 571.87 41.3126 569.536 42.2207ZM579.264 79.8414C579.264 88.533 578.875 90.0897 576.021 92.8139C571.611 97.3544 564.865 97.2246 561.233 92.6842C557.472 88.0141 557.861 83.8628 562.141 79.063C565.255 75.5604 574.594 70.5011 578.356 70.2417C578.875 70.1119 579.264 74.5225 579.264 79.8414Z" fill="white"/>
</g>
<g filter="url(#filter10_d_325_84)">
<path d="M223.194 24.2156C223.194 20.0629 226.437 15.7834 232.274 15.7834C236.165 15.7834 240.057 19.3264 240.057 23.567C240.057 27.8076 237.831 31.9992 231.626 31.9992C225.788 31.9992 223.194 28.3683 223.194 24.2156Z" fill="white"/>
</g>
<defs>
<filter id="filter0_d_325_84" x="246.38" y="7.99986" width="75.615" height="108.266" filterUnits="userSpaceOnUse" color-interpolation-filters="sRGB">
<feFlood flood-opacity="0" result="BackgroundImageFix"/>
<feColorMatrix in="SourceAlpha" type="matrix" values="0 0 0 0 0 0 0 0 0 0 0 0 0 0 0 0 0 0 127 0" result="hardAlpha"/>
<feOffset dx="1" dy="8"/>
<feGaussianBlur stdDeviation="3.5"/>
<feComposite in2="hardAlpha" operator="out"/>
<feColorMatrix type="matrix" values="0 0 0 0 0 0 0 0 0 0 0 0 0 0 0 0 0 0 0.75 0"/>
<feBlend mode="normal" in2="BackgroundImageFix" result="effect1_dropShadow_325_84"/>
<feBlend mode="normal" in="SourceGraphic" in2="effect1_dropShadow_325_84" result="shape"/>
</filter>
<filter id="filter1_d_325_84" x="499.327" y="24.7075" width="49.1226" height="91.3927" filterUnits="userSpaceOnUse" color-interpolation-filters="sRGB">
<feFlood flood-opacity="0" result="BackgroundImageFix"/>
<feColorMatrix in="SourceAlpha" type="matrix" values="0 0 0 0 0 0 0 0 0 0 0 0 0 0 0 0 0 0 127 0" result="hardAlpha"/>
<feOffset dx="1" dy="8"/>
<feGaussianBlur stdDeviation="3.5"/>
<feComposite in2="hardAlpha" operator="out"/>
<feColorMatrix type="matrix" values="0 0 0 0 0 0 0 0 0 0 0 0 0 0 0 0 0 0 0.75 0"/>
<feBlend mode="normal" in2="BackgroundImageFix" result="effect1_dropShadow_325_84"/>
<feBlend mode="normal" in="SourceGraphic" in2="effect1_dropShadow_325_84" result="shape"/>
</filter>
<filter id="filter2_d_325_84" x="9" y="42.2881" width="80.2139" height="106.39" filterUnits="userSpaceOnUse" color-interpolation-filters="sRGB">
<feFlood flood-opacity="0" result="BackgroundImageFix"/>
<feColorMatrix in="SourceAlpha" type="matrix" values="0 0 0 0 0 0 0 0 0 0 0 0 0 0 0 0 0 0 127 0" result="hardAlpha"/>
<feOffset dx="1" dy="8"/>
<feGaussianBlur stdDeviation="3.5"/>
<feComposite in2="hardAlpha" operator="out"/>
<feColorMatrix type="matrix" values="0 0 0 0 0 0 0 0 0 0 0 0 0 0 0 0 0 0 0.75 0"/>
<feBlend mode="normal" in2="BackgroundImageFix" result="effect1_dropShadow_325_84"/>
<feBlend mode="normal" in="SourceGraphic" in2="effect1_dropShadow_325_84" result="shape"/>
</filter>
<filter id="filter3_d_325_84" x="86.8296" y="42.2505" width="72.4543" height="73.9956" filterUnits="userSpaceOnUse" color-interpolation-filters="sRGB">
<feFlood flood-opacity="0" result="BackgroundImageFix"/>
<feColorMatrix in="SourceAlpha" type="matrix" values="0 0 0 0 0 0 0 0 0 0 0 0 0 0 0 0 0 0 127 0" result="hardAlpha"/>
<feOffset dx="1" dy="8"/>
<feGaussianBlur stdDeviation="3.5"/>
<feComposite in2="hardAlpha" operator="out"/>
<feColorMatrix type="matrix" values="0 0 0 0 0 0 0 0 0 0 0 0 0 0 0 0 0 0 0.75 0"/>
<feBlend mode="normal" in2="BackgroundImageFix" result="effect1_dropShadow_325_84"/>
<feBlend mode="normal" in="SourceGraphic" in2="effect1_dropShadow_325_84" result="shape"/>
</filter>
<filter id="filter4_d_325_84" x="152.984" y="42.1521" width="65.6133" height="73.4454" filterUnits="userSpaceOnUse" color-interpolation-filters="sRGB">
<feFlood flood-opacity="0" result="BackgroundImageFix"/>
<feColorMatrix in="SourceAlpha" type="matrix" values="0 0 0 0 0 0 0 0 0 0 0 0 0 0 0 0 0 0 127 0" result="hardAlpha"/>
<feOffset dx="1" dy="8"/>
<feGaussianBlur stdDeviation="3.5"/>
<feComposite in2="hardAlpha" operator="out"/>
<feColorMatrix type="matrix" values="0 0 0 0 0 0 0 0 0 0 0 0 0 0 0 0 0 0 0.75 0"/>
<feBlend mode="normal" in2="BackgroundImageFix" result="effect1_dropShadow_325_84"/>
<feBlend mode="normal" in="SourceGraphic" in2="effect1_dropShadow_325_84" result="shape"/>
</filter>
<filter id="filter5_d_325_84" x="212.75" y="42.091" width="41.1436" height="74.1552" filterUnits="userSpaceOnUse" color-interpolation-filters="sRGB">
<feFlood flood-opacity="0" result="BackgroundImageFix"/>
<feColorMatrix in="SourceAlpha" type="matrix" values="0 0 0 0 0 0 0 0 0 0 0 0 0 0 0 0 0 0 127 0" result="hardAlpha"/>
<feOffset dx="1" dy="8"/>
<feGaussianBlur stdDeviation="3.5"/>
<feComposite in2="hardAlpha" operator="out"/>
<feColorMatrix type="matrix" values="0 0 0 0 0 0 0 0 0 0 0 0 0 0 0 0 0 0 0.75 0"/>
<feBlend mode="normal" in2="BackgroundImageFix" result="effect1_dropShadow_325_84"/>
<feBlend mode="normal" in="SourceGraphic" in2="effect1_dropShadow_325_84" result="shape"/>
</filter>
<filter id="filter6_d_325_84" x="324.192" y="41.9801" width="63.2671" height="73.9866" filterUnits="userSpaceOnUse" color-interpolation-filters="sRGB">
<feFlood flood-opacity="0" result="BackgroundImageFix"/>
<feColorMatrix in="SourceAlpha" type="matrix" values="0 0 0 0 0 0 0 0 0 0 0 0 0 0 0 0 0 0 127 0" result="hardAlpha"/>
<feOffset dx="1" dy="8"/>
<feGaussianBlur stdDeviation="3.5"/>
<feComposite in2="hardAlpha" operator="out"/>
<feColorMatrix type="matrix" values="0 0 0 0 0 0 0 0 0 0 0 0 0 0 0 0 0 0 0.75 0"/>
<feBlend mode="normal" in2="BackgroundImageFix" result="effect1_dropShadow_325_84"/>
<feBlend mode="normal" in="SourceGraphic" in2="effect1_dropShadow_325_84" result="shape"/>
</filter>
<filter id="filter7_d_325_84" x="382.582" y="42.081" width="71.0005" height="74.2381" filterUnits="userSpaceOnUse" color-interpolation-filters="sRGB">
<feFlood flood-opacity="0" result="BackgroundImageFix"/>
<feColorMatrix in="SourceAlpha" type="matrix" values="0 0 0 0 0 0 0 0 0 0 0 0 0 0 0 0 0 0 127 0" result="hardAlpha"/>
<feOffset dx="1" dy="8"/>
<feGaussianBlur stdDeviation="3.5"/>
<feComposite in2="hardAlpha" operator="out"/>
<feColorMatrix type="matrix" values="0 0 0 0 0 0 0 0 0 0 0 0 0 0 0 0 0 0 0.75 0"/>
<feBlend mode="normal" in2="BackgroundImageFix" result="effect1_dropShadow_325_84"/>
<feBlend mode="normal" in="SourceGraphic" in2="effect1_dropShadow_325_84" result="shape"/>
</filter>
<filter id="filter8_d_325_84" x="450.368" y="42.3532" width="55.1748" height="73.7251" filterUnits="userSpaceOnUse" color-interpolation-filters="sRGB">
<feFlood flood-opacity="0" result="BackgroundImageFix"/>
<feColorMatrix in="SourceAlpha" type="matrix" values="0 0 0 0 0 0 0 0 0 0 0 0 0 0 0 0 0 0 127 0" result="hardAlpha"/>
<feOffset dx="1" dy="8"/>
<feGaussianBlur stdDeviation="3.5"/>
<feComposite in2="hardAlpha" operator="out"/>
<feColorMatrix type="matrix" values="0 0 0 0 0 0 0 0 0 0 0 0 0 0 0 0 0 0 0.75 0"/>
<feBlend mode="normal" in2="BackgroundImageFix" result="effect1_dropShadow_325_84"/>
<feBlend mode="normal" in="SourceGraphic" in2="effect1_dropShadow_325_84" result="shape"/>
</filter>
<filter id="filter9_d_325_84" x="542.132" y="41.9681" width="66.8679" height="74.2781" filterUnits="userSpaceOnUse" color-interpolation-filters="sRGB">
<feFlood flood-opacity="0" result="BackgroundImageFix"/>
<feColorMatrix in="SourceAlpha" type="matrix" values="0 0 0 0 0 0 0 0 0 0 0 0 0 0 0 0 0 0 127 0" result="hardAlpha"/>
<feOffset dx="1" dy="8"/>
<feGaussianBlur stdDeviation="3.5"/>
<feComposite in2="hardAlpha" operator="out"/>
<feColorMatrix type="matrix" values="0 0 0 0 0 0 0 0 0 0 0 0 0 0 0 0 0 0 0.75 0"/>
<feBlend mode="normal" in2="BackgroundImageFix" result="effect1_dropShadow_325_84"/>
<feBlend mode="normal" in="SourceGraphic" in2="effect1_dropShadow_325_84" result="shape"/>
</filter>
<filter id="filter10_d_325_84" x="217.194" y="15.7834" width="30.863" height="31.2158" filterUnits="userSpaceOnUse" color-interpolation-filters="sRGB">
<feFlood flood-opacity="0" result="BackgroundImageFix"/>
<feColorMatrix in="SourceAlpha" type="matrix" values="0 0 0 0 0 0 0 0 0 0 0 0 0 0 0 0 0 0 127 0" result="hardAlpha"/>
<feOffset dx="1" dy="8"/>
<feGaussianBlur stdDeviation="3.5"/>
<feComposite in2="hardAlpha" operator="out"/>
<feColorMatrix type="matrix" values="0 0 0 0 0 0 0 0 0 0 0 0 0 0 0 0 0 0 0.75 0"/>
<feBlend mode="normal" in2="BackgroundImageFix" result="effect1_dropShadow_325_84"/>
<feBlend mode="normal" in="SourceGraphic" in2="effect1_dropShadow_325_84" result="shape"/>
</filter>
</defs>
</svg>
